<?xml version="1.0" standalone="no"?>
<!DOCTYPE svg PUBLIC "-//W3C//DTD SVG 20010904//EN"
 "http://www.w3.org/TR/2001/REC-SVG-20010904/DTD/svg10.dtd">
<svg version="1.0" xmlns="http://www.w3.org/2000/svg"
 width="512.000000pt" height="512.000000pt" viewBox="0 0 512.000000 512.000000"
 preserveAspectRatio="xMidYMid meet">

<g transform="translate(0.000000,512.000000) scale(0.100000,-0.100000)"
fill="#000000" stroke="none">
<path d="M1075 5109 c-129 -15 -261 -55 -390 -118 -119 -58 -282 -171 -338
-234 -135 -151 -257 -367 -301 -535 -46 -173 -47 -227 -43 -1737 4 -1552 0
-1461 62 -1655 53 -164 163 -348 280 -466 129 -129 376 -271 553 -318 173 -46
227 -47 1737 -43 1553 4 1469 0 1657 62 359 118 649 409 763 765 62 194 58
103 62 1655 4 1510 3 1564 -43 1737 -47 177 -189 424 -318 553 -118 117 -302
227 -466 280 -195 62 -99 59 -1685 61 -825 1 -1484 -2 -1530 -7z m2918 -239
c228 -22 423 -114 595 -282 162 -158 257 -360 282 -599 13 -131 13 -2724 0
-2863 -13 -132 -41 -230 -100 -351 -147 -300 -430 -491 -776 -525 -139 -13
-2732 -13 -2863 0 -239 25 -441 120 -599 282 -171 175 -261 368 -282 606 -7
78 -10 583 -7 1502 3 1277 4 1391 21 1458 46 195 134 349 283 493 173 169 350
255 576 279 113 12 2744 12 2870 0z"/>
<path d="M2880 3489 c-133 -11 -171 -26 -215 -88 -27 -38 -30 -52 -33 -130 -4
-84 53 -1385 64 -1467 6 -52 54 -128 96 -155 29 -18 43 -20 126 -15 109 7 168
28 205 77 51 68 52 88 15 504 -19 209 -32 386 -30 393 13 39 41 -3 157 -240
148 -303 169 -328 277 -328 149 0 175 28 302 325 54 127 105 237 112 245 11
11 17 11 26 2 9 -9 5 -94 -16 -369 -34 -430 -34 -446 -5 -507 34 -74 77 -97
196 -106 57 -4 112 -3 133 3 46 12 105 73 119 122 6 23 24 363 41 790 29 701
29 753 14 800 -17 54 -52 98 -97 122 -20 10 -75 16 -172 20 -134 6 -145 5
-178 -16 -45 -27 -52 -39 -258 -413 -109 -199 -181 -320 -193 -324 -11 -4 -25
1 -36 12 -10 11 -98 161 -196 334 -97 173 -189 330 -202 348 -48 63 -89 73
-252 61z"/>
<path d="M765 3451 c-50 -22 -101 -79 -115 -128 -8 -27 -10 -266 -8 -793 l3
-755 25 -45 c16 -28 43 -55 74 -75 48 -29 53 -30 170 -30 114 0 124 2 168 28
31 18 57 44 75 75 l28 47 -4 765 c-4 829 -2 803 -59 863 -52 55 -90 67 -209
67 -83 0 -117 -5 -148 -19z"/>
<path d="M1948 3446 c-40 -17 -88 -66 -105 -106 -10 -23 -20 -111 -29 -269 -7
-128 -15 -235 -16 -236 -2 -1 -81 2 -177 7 l-175 8 -52 -25 c-69 -34 -102 -83
-115 -171 -22 -153 28 -258 141 -292 19 -6 106 -14 193 -18 l157 -6 0 -42 c0
-22 -5 -140 -11 -262 l-12 -221 26 -56 c39 -86 81 -108 215 -118 70 -5 122 -4
151 3 58 15 125 79 140 133 10 41 81 1305 81 1456 0 65 -4 91 -19 114 -57 92
-109 115 -256 114 -63 0 -122 -6 -137 -13z"/>
</g>
</svg>
